<svg width="270" height="300" xmlns="http://www.w3.org/2000/svg">
  <path fill-rule="evenodd" d="M54.813 164.46a.589.589 0 0 1-.084-.013c-5.633-1.284-9.718-5.255-15.85-5.804-6.546-.588-11.115 1.558-11.203-6.635-.286-26.672 3.47-55.589 15.068-79.832.668-1.397 4.328-7.935 2.563-9.162-2.72-1.891-9.048-1.323-12.422-2.44l-1.014-.336c-.336-.111-1.018-.013-.998-.367.693-12.417 14.518-11.866 23.49-13.342 6.964-1.144-1.166-6.008.084-8.18 1.429-2.479 9.468-.33 11.555.444 2.724 1.011 7.669 4.537 10.475 4.607 3.283.084 7.238-6.02 9.816-7.732 8.74-5.796 21.984-4.819 31.717-4.004 4.292.36 12.748.647 16.19 2.35 6.333 3.133 15.974 3.006 22.835 2.959 8.821-.06 13.69-3.505 19.754-8.903 4.294-3.826 2.16-6.565 3.166-11.765 1.033-5.336 3.928-6.128 9.793-6.034 12.848.211 17.492 6.682 18.334 19.135.552 8.194 6.673 4.83 12.455 2.473 4.38-1.787 11.097-4.897 13.768-9.068.993-1.553 2.317-9.158 5.16-8.915 12.363 1.071 8.883 16.91 7.808 24.422-1.128 7.897-4.924 11.366-9.712 17.475-1.216 1.55-8.779 4.91-7.932 7.092 1.016 2.615 9.794-1.438 11.351-2.106 1.814-.777 7.966-6.585 9.12-4.797 3.087 4.787-4.397 12.095-6.694 15.444-1.859 2.71 2.11 8.772-.99 10.496-3.829 2.13-12.633.278-16.937-.018-.467-.032-.944.05-1.393.182-8.773 2.57-20.373 2.262-29.324 1.336-5.916-.61-10.546-2.473-16.06-3.955-7.661-2.06.718 5.982-5.21 6.685-12.097 1.438-28.027-1.24-39.058-6.812-6.203-3.132-8.73-7.804-16.366-4.736-6.96 2.793-19.677 9.07-27.447 5.87-4.468-1.84 5.12-7.863 6.453-8.505 4.455-2.148 15.312-2.35 17.768-7.987 2.355-5.404-9.832-1.84-11.813-1.113-9.178 3.368-23.666 6.044-28.802 14.674-8.113 13.63-10.68 27.73-12.93 43.367-1.648 11.46-2.29 23.181-4.23 34.547-.157.914-.525 9.139-2.255 9.004Zm-3.512-4.92c.411.007.512-.21-.205-.854-.265-.239-.673-.288-1.03-.286l-.56.004c-1.515.013.89 1.117 1.795 1.135Zm-3.196-2.696c.036.001.07 0 .104-.002.49-.039.804-.508.506-1.758-.153-.641-.759-.76-1.207-.535l-.559.094c-1.71.285.062 2.161 1.156 2.2Zm-.597-2.295h.006c.133-.022-.404.354-.319.25a.95.95 0 0 1 .313-.25Zm5.162-.83c.443-.004.574-.183-.143-.666-.38-.257-.978-.232-1.41-.246-.21-.007.643-.5.438-.453l-.649.144c-1.697.378.79 1.228 1.764 1.22Zm-17.176-.192c.38-.02.537-.328.03-1.17-.117-.192-.388-.302-.612-.287l-.598.043c-1.592.113.343 1.459 1.18 1.414Zm10.428-1.548c.323-.017.435-.175.055-.57-.14-.146-.228-.417-.43-.427l-.549-.027c-2.907-.149-.046 1.072.924 1.024Zm-13.133-2.69c1.017.023 2.045-.457.147-1.252-.183-.076-.183-.613-.336-.488l-.46.377c-1.136.932-.248 1.343.65 1.363Zm9.291-.885c.803-.07 2.874-1.79.666-1.347-.132.026-.333-.18-.4-.063l-.293.508c-.407.704-.287.93.027.902Zm-2.164-3.437c1.016.032 3.231-1.233 1.148-1.799-.375-.102-.44.277-.556.55-.07.167.053-.67-.069-.536l-.341.379c-.916 1.015-.714 1.389-.182 1.406Zm16.154-10.488h.106c.314-.015.366-.176-.467-.604-.046-.023.137-.14.088-.127l-.496.133c-.847.225.203.575.77.598Zm-9.302-4.782c.689-.012 2.938-1.88.97-1.334-.156 0-.342-.315-.43-.185l-.287.426c-.552.819-.523 1.098-.253 1.093Zm-5.33-1.627c1.137 0 2.101-.47.4-1.662-.23-.161-.587-.104-.844.01l-.467.209c-1.89.842-.379 1.444.91 1.443Zm4.408-2.334c.532-.011.726-.147-.362-.5-.12-.039-.24-.135-.365-.113l-.537.094c-1.217.212.12.484 1.018.517.087.004.17.004.246.002Zm12.629-5.799c.376-.008.448-.427-.198-1.582-.236-.423-.632-.913-1.117-.935l-.64-.03c-1.955-.091.994 2.569 1.955 2.547Zm-23.53-3.03c.702.006 1.166-.258.36-1.016-.145-.136-.285-.394-.479-.354l-.596.123c-2.285.472-.454 1.234.715 1.246Zm19.637-2.032c.634.01 1.197-.36.398-1.338-.09-.112-.274-.257-.394-.178l-.55.364c-.981.645-.173 1.142.546 1.152Zm-15.637-1.47c.543.009.781-.018-.213-.077-.14-.008-.066-.386-.205-.367l-.535.074c-1.7.236.049.353.953.37Zm-3.96-2.872c1.11-.01 2.697-.413 1.14-.972-.417-.15-.592.2-.697.525.043-.153.16-.61.027-.555l-.488.2c-1.42.58-.846.81.017.802Zm25.165-5.088c.72-.007 1.743-.315.168-.68-.007-.001-.017-.002-.023.003l-.486.312c-.414.266-.09.37.341.365Zm-6.113-.347c.43.01.67-.27-.012-1.143-.06-.077-.198-.083-.289-.047l-.535.211c-.832.328.207.964.836.979Zm-7.861-6.42c.067 0 .13 0 .187-.002.554-.027.619-.241-.799-.752-.384-.139-.775-.077-1.166-.018-.144.022.298-.474.168-.406l-.47.248c-.88.465 1.072.912 2.08.93Zm-6.512-7.334c.81-.022 2.05-.75-.197-1.053l.04-.08c.03-.059-.252.053-.187.06l.147.02-.256.512c-.206.409.077.55.453.54ZM152.16 82.67c.266-.005.419-.32.174-1.236-.037-.137-.212-.285-.348-.245l-.58.172c-.67.2.247 1.319.754 1.309Zm-5.414-1.695c.583-.008.685-.323-.9-1.178-.174-.094-.307-.469-.471-.36l-.49.325c-.868.576 1.01 1.224 1.861 1.213Zm53.29-.04c.519.023.993-.278 1.13-1.185.068-.449-.764-.494-1.172-.693l-.014-.01c.027.003.05.004.077.008l.675.08c.238.028-.876-.172-.752-.088-1.055-.113-1.505.104-1.584.43l-.466.314c-.393.265.116.404.757.441.325.368.855.682 1.348.704Zm11.132-.308c.712-.025.402-.48-.252-.924.963-.339 1.266-1.09-.783-2.09-.697-.34-1.487-.957-1.963-.279l-.303.43c-.877 1.248-.052 1.891 1.049 2.078.328.3.77.564 1.182.65.388.082.688.124.914.133.056.002.109.004.156.002Zm-5.977-.461c1.004-.007 1.488-.5.024-1.84-.375-.343-1.302-.833-1.961-.808.13-.09.383-.21.283-.202l-.543.041c-1.102.082-1.205.359-.869.655-1.36.981 1.492 2.164 3.066 2.154Zm-11.662-.13c.508.015.662-.363-.404-1.518.96.372 2.422.555.627-.62a.574.574 0 0 0-.375-.085l-.52.066c-.545.068-.475.253-.162.44l-.576.173c-1.286.389.558 1.517 1.41 1.543Zm27.73-.472c.168-.008.016-.13-.775-.437-.158-.061.133-.507-.037-.508l-.676-.002c-2.385-.009.987.974 1.489.947Zm-5.849-.224c.745.01 1.034-.434-.568-1.649-.015-.01-.179-.163-.381-.308a8.151 8.151 0 0 0-.264-.403c-.524-.754-.957-1.167-1.33-.505l-.41.726c-.285.507.432 1.185 1.162 1.528l.004.001c.475.36 1.25.603 1.787.61Zm-28.52-.12c.662-.003 1.18-.46 1.114-1.732-.038-.741-.501-1.058-1.129-1.078l-.578-.017c-3.733-.116-1.098 2.837.594 2.828ZM70.2 79.124c1.15.024 2.942-.604.82-1.076-.194-.043-.18-.6-.342-.486l-.485.337c-1.27.887-.782 1.209.006 1.225Zm-26.253-.088c.556 0 .88-.4.207-1.545-.107-.182.076-.668-.13-.62l-.514.116c-2.537.579-.625 2.048.437 2.05Zm95.84-.428c.485-.011.676-.14-.226-.42-.223-.068-.145-.682-.362-.597l-.6.236c-1.246.492.38.8 1.188.781Zm57.367-.548c.103-.002.204-.012.305-.032 1.48-.29.87-1.159.078-1.8l.424-.057-.479.012c-.525-.415-1.11-.724-1.218-.694l-.53.149c-.93.257-.896.942-.427 1.517 0 .25.198.448.482.444.392.277.882.466 1.365.46Zm-35.433-.348c.609-.022.773-.37-.514-1.33-.348-.259-.656-.314-1.064-.156l-.48.183c-1.204.466 1.043 1.339 2.058 1.303Zm45.955-.107c.247.005.443-.24.334-1.022-.017-.118-.174.197-.293.209l-.551.055c-.46.047.098.748.51.758Zm-63.305-.364c.907-.008 1.52-.345-.15-1.142-.17-.082-.323-.383-.487-.29l-.677.387c-1.118.641.287 1.054 1.314 1.045Zm46.606-.79c.415 0 .461-.207-.692-.8l-.365-.185.387-.117c.204-.062-.831-.112-.641-.014l.254.13-.223.067c-1.125.336.588.916 1.28.918Zm-54.198-.712c.458-.008.869-.145 1.092-.496.15-.234-.187-.283-.314-.305l-1.01-.17c-3.626-.607-1.401 1.003.232.971Zm38.285-.197c.57-.018.958-.394.864-1.387-.12-1.268-1.706-1.211-2.442-1.23l-.865-.022c-2.1-.058.712 2.558 2.326 2.637.04.002.08.003.117.002Zm9.71-.924a.96.96 0 0 0 .091 0c.432-.02.654-.363.176-1.312a.366.366 0 0 0-.312-.184l-.61.006c-2.11.019-.323 1.441.654 1.49Zm-25.508-.18c.037.003.072.002.105 0 .42-.018.527-.322-.129-1.138-.288-.36-.673-.449-1.123-.473l-.57-.031c-2.286-.119.563 1.58 1.717 1.642Zm9.591-.32c.42 0 .602-.328.196-1.232-.093-.208-.47-.893-.592-.916l-.531-.104c-3.754-.71-.333 2.252.927 2.252Zm-36.77-.092a.44.44 0 0 0 .07 0c.31-.03.33-.448-.43-1.597-.03-.045.025-.157-.028-.157l-.512.004c-1.734.012.16 1.706.9 1.75Zm-80.144-.46c.447-.01.617-.162-.437-.555-.055-.02-.066-.151-.12-.127l-.507.23c-.537.243.49.464 1.064.451Zm90.245-.012c.697-.014.92-.376-.342-1.36-.28-.217-.756-.727-1.078-.642l-.73.191c-2.244.595.818 1.837 2.15 1.81Zm36.921-.39c.347.012.435-.248-.298-1.056-.13-.142-.364-.287-.54-.209l-.476.213c-.565.251.736 1.03 1.314 1.051Zm-27.912-.561a.568.568 0 0 0 .078 0c.372-.031.668-.455.59-1.6-.013-.194-.215-.437-.408-.414l-.559.066c-1.575.184-.513 1.902.3 1.948Zm81.207-.803c.026.001.05.002.073 0 .286-.021.346-.303-.123-1.055-.166-.265-.591-.222-.9-.265l-.526-.075c-1.349-.187.683 1.348 1.476 1.395Zm-85.884-.285c.595-.027.945-.596.507-2.121-.12-.421-1.212-1.493-1.623-1.346l-.56.201c-2.13.764.365 3.325 1.676 3.266Zm89.216-.9c.548.011.787-.39-.107-1.602-.201-.273-.634-.38-.908-.268l-.494.201c-1.176.48.597 1.648 1.51 1.668Zm-170.142-.29c.72.007 1.41-.096.502-.334-.169-.044-.331-.194-.5-.152l-.674.166c-.796.198-.048.314.672.32Zm117.633 0c.445-.001.558-.365-.235-1.373-.06-.077-.798-1.057-.916-1.025l-.527.14c-1.896.51.697 2.262 1.678 2.258Zm-27.172-.12c.391-.015.603-.456.295-1.686-.121-.483-.584-.466-.95-.502l-.554-.055c-1.682-.165.157 2.145 1.129 2.24a.588.588 0 0 0 .08.002Zm10.728-.038c.448.002.577-.386-.111-1.486-.218-.348-.508-.758-.692-.774l-.539-.047c-3.03-.254.197 2.302 1.342 2.307Zm73.74-.639c.71.004 1.092-.48.53-1.834-.477-1.145-1.766-1.825-2.91-1.642-.19.03.732.157.543.187l-.575.09c-2.796.44.73 3.19 2.412 3.2Zm-180.84-.045c.609-.002 1.209-.11-.076-.388-.034-.008.077.087.043.095l-.513.131c-.404.101.074.164.547.162Zm160.592-.054c.802.003 1.234-.316.309-1.227-.28-.274-1.091-.625-1.328-.582l-.752.139c-2.636.483.241 1.664 1.771 1.67Zm-43.191-.184c.728.026 1.198-.367.678-1.521-.215-.477-1.419-1.26-1.973-1.045l-.574.222c-1.846.717.48 2.294 1.869 2.344Zm15.945-.43c.403-.017.513-.382-.33-1.404-.12-.145-.29-.44-.451-.342l-.611.371c-.764.468.721 1.404 1.392 1.375Zm37.153-.064c.42.022.592-.296.029-1.254-.167-.283-.409-.679-.736-.656l-.536.037c-1.817.132.317 1.825 1.243 1.873Zm-80.473-.262c.683-.006 1.144-.292.146-1.017-.216-.158-.528-.381-.763-.252l-.49.27c-1.018.558.228 1.008 1.107 1Zm73.143-.425c1.018-.018 1.733-.692.441-2.407-.365-.484-1.331-.903-1.756-.47l-.5.507c-1.307 1.331.505 2.392 1.815 2.37Zm-8.74-.051c.494-.018.612-.287-.266-1-.393-.319-1.389-.367-1.785-.432-.204-.033.784-.249.582-.209l-.682.135c-1.848.366 1.063 1.546 2.15 1.506Zm-133.854-.004c.332.01.494-.163.138-.672.084-.052.06-.112-.13-.17-.15-.168-.4-.29-.618-.25l-.33.06c-.041-.1-.01-.324-.088-.273l-.488.322c-.438.29-.198.426.22.467.299.253.91.505 1.296.516Zm79.78-.01c.436-.016.595-.374.001-1.346-.155-.254-.284-.692-.687-.677l-.625.023c-2.349.09.11 1.933 1.218 1.998a.971.971 0 0 0 .092.002Zm9.552-.03c.798.025 1.422-.464.652-1.784-.112-.193-.971-.942-1.035-.9l-.436.284c-1.887 1.234-.347 2.365.819 2.4Zm17.484-.023c.562-.017.876-.443.301-1.63-.109-.225-.336-.513-.621-.48l-.582.071c-2.483.297-.42 1.965.787 2.037.04.003.078.003.115.002ZM52.63 67.801c.383.022.63-.278.156-1.24-.055-.113-.238-.19-.35-.133l-.546.277c-.674.341.18 1.063.74 1.096Zm149.898-.084c.535 0 .728-.301-.2-1.196-.131-.125-.305-.18-.49-.214.096-.028-.721-.143-.552-.096.175.048.369.061.553.096-.004 0-.007.003-.014.004l-.654.074c-1.928.22.336 1.33 1.357 1.332Zm-5.373-.291c.697-.016 1.08-.505.33-1.875-.185-.34-.655-.57-.789-.557l-.552.059c-3.21.334-.629 2.275.869 2.369.049.003.096.005.142.004Zm37.15-.744c.72.019 1.044-.258-.193-1.086-.451-.303-.658-.248-1.18-.114-.207.054.742-.413.534-.36l-.668.169c-1.992.503.308 1.358 1.508 1.39Zm-17.384-.026c.065.003.13.002.2-.002 2.42-.116 2.023-3.385-.9-2.177a.235.235 0 0 1-.034.011c.056-.05 1.008-.563.746-.562l-.592.002c-1.666.004-1.434 2.658.58 2.728Zm-10.662-.226c.157.01.247-.078.236-.29.126.036.247.06.356.063.53.012.779-.412.005-1.697a.53.53 0 0 0-.48-.233l-.549.063c-.042.005-.08.012-.119.018-.309-.522-.63-1.03-.957-1.536.882-.189 1.535-.89.18-1.888-.27-.198-.582-.872-.793-.614l-.516.631c-.493.604-.601 1.053-.488 1.364-.396 1.334 2.295 4.065 3.125 4.119Zm-131.973-.014c.486.024.744-.218.27-.977-.052-.082-.166-.15-.297-.205.094-.107-.164-.225-1.168-.296-.065-.005-.064-.205-.111-.16l-.323.306c-1.248.16.652 1.283 1.63 1.332Zm169.42-.053a.943.943 0 0 0 .102 0c.551-.03.794-.585.027-2.047-.042-.079-.644-1.601-1.193-1.212l-.49.347c-1.526 1.079.47 2.854 1.554 2.912Zm-52.924-.476c.03.002.058 0 .084-.002.331-.036.389-.47-.246-1.606-.13-.234.265-.804-.004-.804h-.656c-2.492 0-.099 2.348.822 2.412Zm-134.21-.688c.73-.013 1.5-.42.242-1.168-.065-.038-.13-.168-.19-.123l-.478.367c-.835.64-.22.936.425.924Zm144.189-.263c.412.014.682-.344.373-1.399-.001-.003-.076-.97-.506-.799l-.711.283c-1.245.498.057 1.887.844 1.915Zm10.576-.14a.597.597 0 0 0 .07 0 .36.36 0 0 0 .324-.224c1.289-.34.562-1.434-.417-2.01-.07-.106-.16-.178-.284-.175l-.06.002c-.329-.143-.662-.218-.942-.178l-.515.074c-1.106.158.037 1.972 1.252 2.317.205.115.404.187.572.195Zm-63.395-.16c.43-.028.623-.444-.043-1.57-.128-.216-.436-.541-.642-.396l-.531.375c-.868.612.501 1.64 1.216 1.592Zm46.905-.726c.56.02.842-.343.093-1.502-.177-.274-.66-.123-.978-.047l-.756.182c-1.001.241.707 1.335 1.64 1.367ZM50.918 63.8c.25-.023.37-.234.018-.783-.082-.127-.257-.343-.375-.25l-.416.326c-.34.266.246.664.658.705.04.004.08.005.115.002Zm169.867-.47c.48-.016 1.016-.441 1.293-1.53.158-.62.834-2.167.25-1.904l-.596.265c-2.791 1.246-2.002 3.201-.947 3.168Zm-53.21-.265c.753-.017 1.211-.412-.11-1.404-.191-.143-.48-.351-.682-.222l-.441.283c-1.197.762.263 1.365 1.232 1.343Zm-79.32-.074c.22.008.36-.155.231-.685-.08-.327-.047-.584-.66-.17l-.459.308c-.066.045.523.534.889.547Zm158.177-.332c.519-.002.916-.509.756-1.918-.053-.463.439-1.457-.024-1.398l-.734.092c-3.147.398-1.228 3.229.002 3.224Zm-94.985-.074c1.14.016 2.026-.381.3-1.227-.432-.21-.874-.954-1.268-.681l-.448.308c-1.492 1.031.125 1.582 1.416 1.6Zm-27.228-.432c1.06.036 1.86-.467.418-1.941-.228-.233-.656-.35-.953-.217l-.637.285c-1.987.894-.192 1.828 1.172 1.873Zm73.326-.754c.395-.016.752-.35.918-1.209.076-.395-.503-.925-.682-1.132-.158-.184.913-.231.674-.272l-.57-.097c-3.316-.559-1.63 2.766-.34 2.71Zm-63.596-.03c.369-.017.681-.46.625-1.696-.01-.215-.004-.658-.215-.611l-.634.14c-1.53.337-.613 2.086.15 2.164.025.003.05.003.074.002Zm80.938-.104c.553.009.735-.162-.297-.592l-.805-.336c-.226-.094.519-.756.287-.676l-.562.194c-2.092.727.32 1.393 1.377 1.41Zm-58.489-.125c.459.022.64-.338.084-1.399-.186-.355-.405-.859-.804-.894l-.512-.045c-2.915-.274.061 2.28 1.232 2.338Zm69.004-.047c.035.002.07.001.104 0 .485-.021.774-.415.474-1.504-.297-1.082-1.313-.535-1.84-.46l-.517.075c-1.165.165.692 1.827 1.78 1.889Zm-133.658-.406c.633-.014 1.02-.442.026-1.65-.17-.206-.578-.07-.793.085l-.485.352c-.782.565.438 1.23 1.252 1.213Zm115.68-.143c.931.01 2.188-.951.498-1.65-.27-.112-.52-.83-.66-.575l-.246.452c-.714 1.306-.23 1.767.408 1.773Zm-78.932-.44c.514.024.797-.214.037-.994-.242 0-.455-.166-.71-.08l-.54.182c-.785.266.462.858 1.213.893Zm-80.55-.193c1.241-.011 3.193-.536 1.265-.992-.384-.09-.918-.195-1.234.008l-.51.326c-.758.486-.267.665.478.658Zm10.86-.318c.878.01 1.552-.403.292-1.582-.114-.106-.319-.054-.465-.002l-.525.187c-1.888.674-.428 1.385.699 1.397Zm105.675-.008c1.06.04 2.129-.749-.194-1.889-.197-.097-.57-.312-.65-.107l-.233.596c-.37.956.351 1.373 1.077 1.4Zm27.08-.1c.09.003.182.002.273 0 1.455-.03 2.88-.639.83-1.845-.566-.334-.599-.498-1.394-.04l-.455.262c-1.804 1.036-.61 1.584.746 1.623Zm10.511-.724c.737.016 1.183-.323.414-1.326-.13-.17-.667-.628-.8-.606l-.555.09c-2.927.481-.464 1.81.941 1.842Zm27.258-.229c.037.002.072.002.106 0 .418-.02.528-.32-.133-1.107-.267-.318-.425-.96-.838-.922l-.607.057c-2.502.23.321 1.914 1.472 1.972ZM53.55 58.383c.47-.009.645-.225.01-.82-.257-.24-1.135-.425-1.381-.397l-.56.064c-1.575.182.895 1.172 1.93 1.153Zm53.213-.127c.537.002.78-.358.23-1.379-.132-.245-1.096-.735-1.172-.74l-.572-.04c-3.146-.223.142 2.153 1.514 2.159Zm15.722-.14c.298.002.447-.34.047-1.352-.035-.09.083-.31-.011-.29l-.618.137c-1.103.24.013 1.5.582 1.504Zm-26.732-.012c.615 0 .872-.254-.201-.993-.237-.163-.558-.28-.838-.213l-.527.13c-1.48.36.541 1.073 1.566 1.076Zm47.644-.198a.938.938 0 0 0 .112 0c.445-.03.664-.417.25-1.408-.194-.464-.184-1.433-.68-1.348l-.601.106c-2.638.456-.267 2.587.92 2.65Zm-10.998-.113c.418.015.635-.297.034-1.254-.083-.13-.201-.362-.346-.309l-.563.208c-1.069.393.18 1.33.875 1.355Zm-96.171-.086c.06.002.12.001.183 0 1.463-.028 3.57-.8 1.223-1.73-.224-.09-1.12.155-1.2.21l-.486.342c-1.16.813-.618 1.154.28 1.178Zm186.894-.312c.694-.026.99-.391-.031-1.338-.381-.353-.875-.924-1.365-.752l-.514.18c-2.186.762.586 1.957 1.91 1.91Zm-10.197-.141c.838-.007 1.341-.308.205-1.127-.395-.285-.987-.439-1.44-.258l-.507.203c-1.422.57.517 1.192 1.742 1.182Zm-17.139-.049c.31-.018.461-.334.04-1.205-.042-.085.044-.304-.048-.28l-.6.163c-1.149.312.018 1.357.608 1.322Zm-106.55-.43c.25.006.45-.248.37-1.029-.004-.039-.078-.018-.117-.016l-.613.034c-.774.044-.118 1 .36 1.011Zm-15.98-.484c.291-.01.401-.267-.038-1.008-.08-.135-.301-.157-.455-.125l-.582.121c-.692.148.521 1.031 1.076 1.012ZM62.27 56.26c1.118-.017 2.606-.469.75-1.108-.136-.043-.3-.062-.428-.002l-.514.245c-1.324.63-.678.878.192.865Zm36.677-.084c.415.016.85-.145 1.12-.63.097-.175.019-.572-.182-.575l-.65-.008c-2.28-.032-1.348 1.172-.288 1.213ZM57.37 56.09c.619-.01.904-.343.223-1.252-.424-.566-1.128-.967-1.848-.822l-.525.105c-2.18.442.79 1.99 2.15 1.969Zm52.66-.473c.943 0 1.536-.363.217-1.361-.355-.269-.716-.47-1.203-.299l-.525.186c-1.994.7.133 1.475 1.511 1.474Zm123.42-.113c.512-.012.662-.386-.252-1.47-.397-.472-.946-.166-1.326-.077l-.5.117c-.997.234.982 1.366 1.97 1.428.038.002.074.003.108.002Zm-187.392-.149c.31-.012.429-.323-.133-1.244-.027-.044-.081.072-.131.086l-.643.182c-.663.19.39.997.907.976Zm180.111-.017c1.462-.026 3.188-1.023.463-2.139-.265-.108-.509-.71-.7-.498l-.474.531c-1.403 1.558-.426 2.126.711 2.106Zm-36.123-.281c.638.003.925-.263-.195-1.012-.167-.112-.256-.453-.45-.4l-.586.158c-1.87.496.168 1.248 1.23 1.254Zm-149.408-.022c1.168.008 2.159-.464.556-1.613-.54-.388-.913-.399-1.232-.225l-.453.246c-1.745.957-.195 1.583 1.129 1.592Zm52.816-.123c.044.002.086 0 .127-.002.598-.034.868-.482.066-1.678-.122-.183-.068-.616-.287-.593l-.603.064c-3.293.345-.667 2.163.697 2.21Zm-26.25-.19c.617-.02.95-.35.318-1.243-.376-.533-1.215-.512-1.685-.377l-.543.154c-1.482.424.732 1.507 1.91 1.467Zm9.645-.61c.313.017.48-.313.097-1.323-.05-.133-.01-.432-.148-.4l-.537.123c-1.142.263-.01 1.565.588 1.6Zm143.92-.067c.53.005.864-.505.515-1.963-.068-.286-.277-.983-.54-.98l-.554.003c-3.028.027-.676 2.927.579 2.94Zm-171.916-.633c1.346.026 3.735-1.41.47-1.683-.17-.015-.739-.07-.789.027l-.242.469c-.448.862-.052 1.175.56 1.187Zm145.152-.062c.38.022.472-.18-.207-.784-.144-.127-.214.32-.32.48l-.467-1.265-.563.11c-1.507.284.722 1.41 1.557 1.459Zm-53.178-.188a.911.911 0 0 0 .088 0c.336-.02.323-.271-.496-.918-.268-.179-.374-.694-.695-.672l-.623.043c-2.12.15.762 1.51 1.726 1.547Zm-79.693-.455c.872-.014 1.326-.386-.014-1.383-.203-.151-1.036-.41-1.121-.383l-.539.168c-2.175.675.057 1.546 1.494 1.596.062.002.122.003.18.002Zm116.426-.037c.685-.01 1.025-.382.084-1.363-.32-.333-.595-1.103-1.024-.932l-.562.225c-2.13.847.067 2.002 1.361 2.068.049.002.095.003.14.002Zm-91.49-.04c.059.004.12.003.181 0 .628-.026 1.265-.344.063-.84-.076-.032-.17-.154-.227-.097l-.418.416c-.341.34-.014.5.4.522Zm-41.788-.18c1.118-.014 2.409-.561.78-1.47-.228-.126-.55-.294-.766-.15l-.445.297c-1.406.932-.555 1.334.431 1.322Zm185.813-.204c1.256.022 2.37-.465.68-1.537-.347-.22-.611-.97-.965-.764l-.657.385c-2.087 1.215-.482 1.892.942 1.916Zm-159.162-.111c.37.005.656-.245.463-.957-.059-.214-.05-.681-.26-.614l-.53.17c-1.401.45-.381 1.392.327 1.4Zm37.03-.55c.535-.013.733-.324-.173-1.167-.206-.192-.404-.578-.676-.506l-.572.152c-1.848.496.402 1.55 1.422 1.522Zm95.056-.05c.255.006.572-.227.746-.945l.166-.02c.06-.007-.121-.187-.133-.127-.01.052-.022.1-.033.147l-.377.043c-1.083.127-.823.89-.37.902Zm-148.192-.084c.66.017 1.02-.287.326-1.172-.174-.222-1.448-.866-1.586-.822l-.539.174c-1.81.583.54 1.788 1.8 1.82Zm132.899-.36c.829.031 1.305-.24-.05-1.06a5.863 5.863 0 0 0-.738-.353l.06-.016c.148-.042-.584-.21-.442-.146.105.047.247.105.382.162l-.49.14c-1.9.545.066 1.23 1.278 1.274Zm-59.461-.173c.838-.019 1.277-.493.15-1.816-.207-.244-.57-.432-.885-.372l-.656.125c-2.952.563-.358 1.99 1.219 2.061.059.003.116.003.172.002Zm-63.291-.068c.598 0 .831-.358-.022-1.362-.281-.33-.57-.894-1-.836l-.56.078c-2.82.387.265 2.119 1.582 2.12Zm132.414-.006c.357-.001.6-.382.39-1.477-.05-.268 1.044-.215.776-.267l-.518-.1c-3.224-.63-1.562 1.847-.648 1.844Zm26.67-.078c.75.014 1.186-.406-.51-1.438-.168-.102-.446-.373-.55-.207l-.308.48c-.446.703.618 1.15 1.368 1.165Zm-133.362-.22c.728.044 1.535-.677.118-1.982-.073-.066-.224-.19-.274-.105l-.31.521c-.616 1.04-.1 1.534.466 1.567Zm26.07-.177c1.424.015 3.346-.948.776-1.637-.458-.122-1.155-.675-1.396-.267l-.327.55c-.581.984.094 1.345.948 1.354Zm117.557-.012c.25.004.447-.06.533-.22.137.035.26.052.364.049.438-.016.524-.416-.235-1.49-.21-.3-.96-1.274-1.24-1.247l-.545.051c-1.127.106-1.063.663-.55 1.242-1.19.475.665 1.603 1.673 1.615Zm-133.539-.336c.569.023 1.042-.247-.103-.89-.139-.078-.395-.26-.463-.117l-.219.463c-.157.332.343.527.785.544Zm106.643-.261c.557-.002.915-.263.226-1.094-.091-.11-.062.377-.205.377h-.54c-1.892 0-.41.72.519.717ZM68.02 49.164c1.101.025 2.128-.6.152-1.914-.144-.095-.196-.501-.332-.396l-.412.316c-1.685 1.292-.51 1.969.592 1.994Zm54.224-.152c.566.001.812-.37.096-1.432-.15-.222-1.072-.645-1.08-.644l-.56.048c-2.495.218.299 2.025 1.544 2.028Zm105.408-.215c.36 0 .517-.355.002-1.373-.108-.214-.154-.7-.377-.611l-.668.265c-1.077.429.355 1.72 1.043 1.719Zm11.217-.408c.385.003.49-.222-.084-.875-.41-.468-1.46-.467-1.996-.545-.3-.044 1.19.228.889.193l-.567-.064c-2.035-.233.774 1.282 1.758 1.29Zm-37.15-.422c.956.001 1.698-.34.267-1.287-.282-.188-.715.013-.97.119l-.524.217c-1.216.505.143.95 1.227.95Zm19.267-.819c.897.022 2.028-1.214-.32-1.566-.125-.019-.368-.179-.375-.053l-.031.61c-.039.731.319 1 .726 1.01Zm-96.476-1.103c.483.028 1.11-.539.576-1.602-.083-.165-.453-.29-.54-.127l-.284.54c-.416.786-.128 1.167.248 1.189ZM206.504 46c.69.002 1.066-.263.398-1.004-.393-.436-1.709-.809-2.08-.684l-.603.206c-1.49.501.968 1.478 2.285 1.482Zm-28.188-.387c.077.001.153 0 .227-.002.937-.028 1.579-.288.248-.752-.616-.215-1.169-.3-1.81-.328.018-.01.03-.022.05-.033l.48-.275c.206-.118-.879.293-.642.3.039.002.074.007.111.008-1.201.728.18 1.071 1.336 1.082Zm62.762-.068c.265.005.3-.198-.36-.793-.086-.078.196-.366.083-.34l-.498.113c-1.07.243.27 1.01.775 1.02Zm-175.014-.992c.434.018.607-.279-.359-1.149-.144-.13.324-.658.158-.558l-.654.394c-.974.585.221 1.286.855 1.313Zm62.99-.375c.355.015.58-.191.061-.793-.112-.13-.177-.532-.304-.416l-.454.412c-.426.39.242.777.698.797Zm96.792-.184c.97-.006 1.63-.334-.149-.91-.349-.113-.53-.953-.822-.73l-.418.32c-1.21.921.289 1.327 1.389 1.32Zm-15.498-.076c.421-.02.559-.516-.121-1.885-.173-.348-.493-.9-.864-.783l-.51.16c-1.49.47.475 2.421 1.407 2.506.03.003.06.003.088.002Zm-7.332-1.773c1.313-.023 2.55-.447.607-1.165-.371-.137-1.468-.284-1.646-.15l-.444.332c-.863.647.134.955 1.22.98.088.003.175.004.263.003ZM59.7 42.043c.35-.004.58-.234.205-.889-.09-.159-.329-.373-.48-.27l-.518.358c-.486.332.282.807.793.801Zm46.428-.166c1.335-.012 2.7-.598.58-1.51 0 0-1.04-.449-1.047-.443l-.576.472c-1.288 1.055-.135 1.491 1.043 1.481Zm-10.549-.11c.216.008.373-.159.297-.654-.033-.213-.233-.594-.424-.492l-.547.291c-.367.196.261.842.674.856Zm117.676-.617c.568-.006.92-.287.103-1.093-.114-.113-.65-.145-.728-.096l-.617.389c-.576.363.512.809 1.242.8Zm-16.053-.273c.394.02.555-.14.186-.602-.341-.425-1.026-.456-1.5-.558-.191-.041.284-.578.09-.578h-.512c-2.714-.006.555 1.676 1.736 1.738Zm42.154-.1a.708.708 0 0 0 .08 0c.378-.02.597-.367.27-1.338-.029-.085-.178-.024-.268-.029l-.71-.035c-1.671-.081-.22 1.354.628 1.402Zm-4.9-.757c.271-.004.212-.23-.578-.834-.315-.242-.327-1.006-.719-.946l-.523.08c-1.718.267 1.127 1.708 1.82 1.7Zm-143.822-.114c.355.02.435-.202-.281-.894-.175-.169-.353-.49-.588-.432l-.553.137c-.94.227.743 1.15 1.422 1.19Zm154.344-.441c.354-.01.357-.33-.475-1.229-.466-.503-1.242-.65-1.863-.867-.263-.092.927.501.65.524l-.582.044c-.988.076 1.49 1.55 2.27 1.528Zm-43.872-1.383c.568.013.875-.203.311-.857-.149-.173-.387-.303-.615-.303h-.727c-2.729 0-.218 1.132 1.031 1.16Zm35.489-.527c.068.002.14.001.21 0 1.281-.025 2.783-.631 1.026-1.455-.334-.157-.716-.649-1.018-.436l-.494.348c-1.502 1.063-.755 1.51.276 1.543ZM103.94 36.93c.376.009.606-.27.155-1.133-.092-.176-.413-.234-.58-.129l-.473.299c-.507.322.35.95.898.963Zm117.004-.764c.64-.005 1.042-.343.409-1.309-.095-.143-.104-.464-.274-.437l-.885.14c-2.568.405-.473 1.615.75 1.606Zm21.535-.314c.644.002.786-.4-.638-1.561-.188-.153-.292-.542-.53-.498l-.59.111c-2.526.467.53 1.943 1.758 1.948Zm-17.41-1.844c.794-.014 1.266-.31.223-1.117-.203-.158-.48-.291-.732-.24l-.612.122c-2.417.494-.201 1.257 1.121 1.235Zm20.846-.24c.183.006.386-.013.61-.065 1.844-.428.175-2.466-.891-2.488l-.615-.014c-.839-.017-.876 2.505.896 2.567Zm-53.887-1.174c.235.018.272-.21-.334-.914-.097-.114.2-.518.07-.444l-.48.278c-.584.336.354 1.05.744 1.08Zm50.377-4.242c.088-.003.148-.17.115-.67-.005-.08.058-.283-.011-.243l-.467.274c-.075.044.195.643.363.639Zm-49.605-1.336c.384-.131.763-.43 1.162-.358.557.101-.134-.034-.766-.207l.309-.441-.522.01c-1.08.018-.468.245.213.431l-.396.565Zm53.955-.668c.332.016.396-.294-.397-1.239-.106-.126.478-.41.315-.382l-.623.105c-1.536.263.07 1.484.705 1.516Zm-1.36-4.971c.763-.001 1.17-.229.104-.852-.364-.212-.815-.51-1.2-.41l-.513.135c-1.924.498.338 1.129 1.61 1.127Zm-43.994-.04c.082.003.162.002.24 0 .974-.016 1.608-.306.149-.898-.453-.183-.896-.904-1.314-.652l-.547.328c-1.27.765.246 1.191 1.472 1.223Zm41.573-2.044c.628-.003.935-.278.353-1.023-.356-.458-.818-1.079-1.396-1.038l-.625.043c-3.649.254.061 2.026 1.668 2.018Z"/>
  <g fill="none" stroke="currentColor">
    <path stroke-width="2" d="M63.19 233.62h.595-.594ZM62.484 239.475l.735-.11c.293-.043.589-.078.883-.116M69.042 241.515l.572-.007c.347-.004.735-.09 1.07-.137M64.594 243.874l.564.045c.599.047 1.192.079 1.793.106M71.117 245.15l.896-.35c.2-.077.438-.216.613-.3M97.015 261.595l.598.031-.598-.031ZM102.627 263.248l.797-.096c.352-.042.704-.09 1.056-.134M117.655 269.947l.83-.355c.542-.23 1.123-.418 1.671-.625M105.005 267.224l.667-.46c.413-.284.813-.612 1.207-.923M90.501 260.505l.696-.361c.356-.185.66-.4 1.034-.576M84.418 258.563l.613-.03c.519-.026 1.033-.597 1.373-.913M80.22 255.985l.636-.209c.906-.296 1.832-1.252 2.57-1.83M75.86 252.802l.581-.041c.438-.031.93.113 1.362.164M122.934 272.06l.78-.222c.884-.252 1.733-.63 2.578-.985M128.845 273.776l.598-.177c.886-.263 1.72-.484 2.602-.801M134.264 270.556l.69-.146c.333-.07.778-.312 1.065-.428M138.519 268.694l.55-.122c.453-.1.91-.235 1.354-.35M140.355 272.532l.46-.338c1.168-.854 2.554-1.506 3.817-2.184M147.062 274.529l.61-.257c.164-.069.38-.225.505-.3M149.277 277.65l.788-.338c.36-.155.716-.32 1.074-.478M153.825 275.706l.817-.285c.143-.05.296-.122.428-.177M157.542 273.473l.566-.39c.334-.23.752-.444 1.08-.638M161.11 271.18l.567-.166-.567.167ZM163.433 274.8l.649-.095c.31-.046.64-.181.933-.272M187.076 270.612l.637-.117c.372-.069.745-.216 1.097-.33M203.13 261.502l.627-.137c.378-.082.787-.251 1.15-.366M207.682 259.714l.492-.42c.32-.271.63-.51.975-.762M211.39 257.104l.557-.306c.439-.241.922-.448 1.364-.686M215.66 255.149l.527-.384c.206-.15.38-.323.568-.499M219.351 252.53l.707-.358c.352-.178.69-.436 1.013-.654"/>
    <path stroke-width="3" d="m57.719 239.848.302.887c.271.797.647 1.228 1.376 1.584M60.186 246.195l.642-.109c.719-.121 1.438-.292 2.153-.43M66.775 248.025l.55-.128c.443-.102 1.086-.637 1.522-.831M72.03 249.916l.864-.165c.93-.178 1.863-.732 2.74-1.084M91.245 264.221l1.082-.372c.855-.295 1.857-1.006 2.585-1.411M65.603 253.574l.75-.277c1.416-.522 2.81-1.258 4.197-1.853M63.792 248.62l.374.623c.18.298.899.872 1.09 1.074M69.212 258.128l.467-.392c1.31-1.1 2.686-2.134 4.031-3.19M71.214 261.793l.73-.38c1.331-.693 2.5-1.53 3.69-2.437M77.852 257.194l.628-.201c.36-.115.728-.32 1.064-.475M77.09 263.4l.445-.4c1.363-1.228 3.506-2.09 5.06-3.085M79.194 267.805l.443-.503c.295-.336.575-.693.86-1.036M83.649 264.694l1.252-.545c1.365-.595 2.712-1.842 3.857-2.764M88.584 265.997l.59-.198c.245-.081.558-.283.759-.387M91.831 269.741l.629-.222c1.373-.487 2.711-1.239 4.04-1.843M98.444 266.022l.825-.435c.24-.127.53-.39.736-.535M97.331 272.657l.566-.333c.374-.22.729-.564 1.06-.835M99.373 276.151l.528-.359c1.706-1.159 3.758-1.607 4.927-3.39M101.283 268.94l.53.378c.552.396.858.726 1.253 1.287M107.58 271.363l.505-.252c.368-.184 1.012-.32 1.348-.426M113.95 272.935l.854-.203c.458-.108.962-.342 1.396-.492M109.785 275.573l.779-.212c.557-.153 1.11-.413 1.64-.626M114.11 277.95l.51-.437c.695-.595 2.438-1.212 3.098-1.537M119.927 274.074l.517.438c.409.347.85.548 1.333.783M121.96 277.96l.604-.242c1.678-.67 3.556-2.191 5.096-3.085M118.013 280.663l.541-.242c.679-.303 1.405-.56 2.089-.838M124.37 283.539l.537-.233c.649-.281 1.26-.63 1.88-.967M127.17 286.384l.727-.403c.314-.175.755-.694.977-.9M132.437 277.463l.553-.185c.43-.144.867-.259 1.297-.41M135.603 275.507l.916-.2c.431-.095.947-.482 1.302-.69M134.67 282.093l.332-.514c.2-.31 1.76-1.115 1.97-1.266M138.602 279.26l.638-.285c.738-.33 1.493-.562 2.23-.918M143.908 275.963l.271.887c.386 1.261 1.423 2.053 1.97 3.238M141.223 281.52l.428.589c.362.498.86.987 1.253 1.45M147.434 283.639l.472.393c.442.364.84.796 1.237 1.204M149.358 287.27l.493.467c.477.453 1.333.816 1.875 1.134M151.323 280.589l.446.708c.356.565 1.573 1.422 1.953 1.776M154.5 285.744l.472.765c.5.811 1.286 1.586 1.878 2.32M155.032 278.648l.484.576c.473.564 1.532 1.13 2.064 1.504M157.859 282.256l.402.614c.448.683 1.122 1.266 1.691 1.829M160.39 277.577l.31.545c.61 1.068 1.157 2.16 1.718 3.259M165.381 277.788l.372.698c.123.23.375.493.523.688M168.034 281.483l.298.55c.332.61 1.002 1.278 1.412 1.796M172.53 278.982l.131.779c.037.221.282.6.362.766M177.595 271.744l-.524.29c-.77.426-1.494.985-2.195 1.507M173.406 274.435l.377.439a29.618 29.618 0 0 0 3.106 3.108M179.17 281.114l-.569.505c-1.104.98-2.652 1.94-3.769 2.76M182.456 272.677l-.385.55c-.29.411-.649.781-.947 1.189M179.912 276.056l.408.51c1.137 1.424 2.157 2.88 3.216 4.37M186.948 277.042l.183.72c.229.9 1.008 2.099 1.383 2.85M184.686 284.167l.623-.404c1.133-.733 2.318-1.401 3.474-2.098M179.593 286.63l.494-.295c.545-.327 1.034-.734 1.59-1.058M194.419 284.933l.324-.672c.338-.702.62-1.217.851-1.995M190.345 285.49l.344-.564c.228-.374.553-.78.788-1.114M189.755 275.46l.644-.392c.471-.286.992-.933 1.371-1.298M195.645 271.383l-.51.39c-.372.285-1.06 1.567-1.309 1.872M199.519 270.063l-.594-.355c-.472-.28-1.103-.527-1.57-.762M195.989 265.197l.016.626c.01.364.554 1.401.645 1.654M202.272 266.555l.06.681c.054.613.826 1.541 1.123 2.047M208.534 268.838l-1.1.652c-1.042.618-2.156 1.695-3.052 2.414M199.399 262.361l-.042.59c-.06.834.685 1.388 1.256 1.822M211.051 262.745l-.465.365c-1.366 1.074-3.542 1.676-5.094 2.453M215.977 260.126l-.741.205c-.738.203-1.811.95-2.436 1.271M220.19 257.268l-.939.436c-.818.38-1.666 1.057-2.408 1.545M227.162 252.982l-.966.438c-1.436.652-2.788 2.304-4.095 3.245M222.106 248.702l.536.47c.501.438 1.163.814 1.71 1.189M231.194 245.118l-.597.313c-1.495.787-2.711 1.405-4.015 2.516M234.304 248.645l-.666.338c-1.58.802-3.107 1.61-4.618 2.536M228.837 240.838l-.518.253c-.758.371-1.33.918-1.921 1.507M224.277 245.053l.324-.614c.242-.46.73-.995 1.018-1.391M232.182 236.884l.34.51c.63.947 1.7 1.97 2.39 2.763M229.762 233.976l.257.591c.187.43.823 1.011 1.08 1.315M233.596 231.414l.17.706c.148.619.786 1.432 1.084 1.93M236.278 235.218l.423.483c.533.608 1.111.975 1.628 1.657M236.005 225.721l-.58.366c-.391.248-.722.556-1.064.868M232.23 227.495l-.08.644c-.088.704-.013 1.49-.018 2.197"/>
  </g>
  <g stroke="currentColor" stroke-width="6">
    <path fill="none" d="m21.943 190.859.45-1.21c3.358-8.997 21.617-8.692 25.908-.917.568 1.03-2.245.858-3.129 1.634-5.95 5.222-1.338 12.83 2.811 17.128M137.81 97.227c-22.038-1.287-40.38 10.769-47.137 32.025-4.749 14.94 4.055 32.926 17.573 40.427 11.96 6.635 33.237 5.222 43.751-3.876 11.054-9.566 13.819-28.977 11.815-42.752-1.68-11.543-11.616-21.409-22.875-24.61-.897-.255-3.128-1.214-3.128-1.214Z"/>
    <path fill-rule="evenodd" d="m126.781 98.807-.57.365c-13.692 8.775-9.681 33.448 5.972 36.798 13.002 2.784 23.501-2.33 26.751-15.708 2.846-11.712-7.13-17.946-17.78-20.315-5.246-1.167-10.654-1.396-14.775-.881-.158.02.537-.345.402-.26ZM235.52 104.096l-.515-.354c-2.267-1.563-8.694-.93-11.444-.692-17.468 1.508-17.757 26.75-3.954 33.392 10.767 5.18 26.497 4.324 28.947-9.393 1.911-10.685-2.926-19.102-13.292-23.255-.123-.05.368.377.259.302Z"/>
    <path fill="none" d="m56.687 170.402-.66-.698c-4.353-4.608-6.563-8.296-13.358-9.67-9.149-1.847-16.846-1.064-22.826 6.291-10.406 12.802-16.579 35.225-9.393 51.008 1.732 3.805 6.343 9.124 9.824 11.222 6.55 3.95 16.904 5.209 24.3 6.131 4.957.618 11.893 1.966 16.124-1.573"/>
    <path fill="none" d="m56 235-5.227 2.964c-1.15 1.14-2.558 7.864-1.666 9.254.682 1.062 4.81-2.293 6.068-.805 8.76 10.372 16.181 27.812 30.895 30.763 4.071.817 5.066.41 4.623-3.488"/>
    <path fill="none" d="m84.084 268.16.405.553C89.042 274.942 97.767 279.128 104 283c5.512 3.424 13.58 4.33 19.986 5.395"/>
    <path fill="none" d="m109.15 277.91.58.418c8.717 6.262 22.954 19.507 34.778 12.87.505-.284.934-.674 1.362-1.058"/>
    <path fill="none" d="m130.256 281.2.451.47c7.086 7.374 20.8 11.478 30.742 11.194 4.638-.132 9.087-1.184 12.595-4.31"/>
    <path fill="none" d="m161.7 286.167.625.19c11.373 3.483 28.583 4.448 38.927-2.331 2.452-1.607 4.049-4.455 4.516-7.283"/>
    <path fill="none" d="M192.508 277.712h.663c10.04 0 24.963-2.693 31.829-10.712.137-.16-6.664.145-7.655.189a65.97 65.97 0 0 1-4.887.032"/>
    <path fill-rule="evenodd" d="m226.222 82.814.58.426c3.461 2.552 3.778 11.833 4.429 15.634.205 1.208.164 2.427.156 3.648"/>
    <path fill="none" d="m214.44 265.865.59-.33c8.095-4.54 21.985-10.174 25.388-19.68.82-2.294-2.725-2.412-4.15-2.39M234.474 242.933l.653-.48c3.01-2.215 8.599-6.675 9.11-10.693.188-1.47-2.896-.913-3.676-.86"/>
    <path fill="none" d="m239.35 232.564.44-.507c5.45-6.31 6.258-16.937 8.03-24.8 1.927-8.564 3.156-20.13 1.14-28.76-.485-2.082-1.837-4.34-2.953-6.127M169.654 207.31l-.75.002c-14.558.025-26.224-4.804-39.519-9.623-7.052-2.554-21.174-4.523-27.922-.031-7.098 4.728-9.634 9.705-10.837 18.145-.564 3.954.043 10.683 2.298 14.066 2.262 3.397 7.14 7.737 10.535 10.026 11.563 7.796 28.325 9.38 41.77 10.193 9.24.559 17.089.164 25.952-2.216 9.337-2.508 19.075-9.704 25.829-16.6 6.529-6.665 11.421-13.603 10.265-23.081-1.73-14.161-19.884-4.511-27.475-2.737-3.026.708-8.078 1.852-10.146 1.856Z"/>
    <path fill="none" d="m113.357 243.185.066-.962c.49-7.238 4.29-11.683 12.414-10.84 8.823.917 12.206 8.746 9.437 16.92M169.961 179.09l.78.255c4.306 1.409 8.819-.221 12.865-1.585M240.65 105.407l-.714-.358c-12.01-6.005-29.718-4.503-40.327 3.604-3.094 2.364-7.773 7.09-9.892 10.332-3.814 5.832-3.634 16.314-3.102 23.032 1.218 15.392 10.085 27.326 24.328 32.611 14.573 5.407 29.646 4.29 39.976-7.838 7.476-8.778 10.444-25.157 7.5-36.356-2.161-8.227-7.369-19.986-15.62-23.858-.765-.358-1.876-1.03-2.15-1.169ZM118 61l-5.057.13c-19.063 2.366-38.76 8.537-43.956 29.293-3.233 12.918-5.884 25.527-7.976 38.643-2.311 14.496-3.565 28.62-4.479 43.228-.015.252-.043.508-.065.757M46.22 62.7l-.285.6C37.577 80.83 31.264 98.01 29.874 117.595c-.849 11.953-2.909 25.257-1.276 37.157.207 1.51.547 3 .767 4.509M57.48 47.168l-.637-.087c-9.701-1.292-24.2 2.568-27.107 13.538-.262.988 6.645.91 7.334.941 2.58.117 6.356 1.232 8.93 1.44M76.46 46.664l-.398-.562c-3.15-4.447-11.12-7.763-16.248-8.361-1.2-.14-7.677-.566-8.363 1.011-.007.016 3.62 2.222 3.853 2.448 1.26 1.226 1.499 4.09 1.696 5.8"/>
    <path fill="none" d="m180.202 14.183.112.732c2.14 13.882-7.468 21.471-20.54 22.189-19.324 1.061-38.37-9.177-57.62-6.307C92.794 32.194 80.392 38.192 76 47"/>
    <path fill="none" d="m205.392 35.974.542-.625c5.126-5.917 1.2-17.302-3.022-22.245-4.944-5.789-19.346-4.455-23.886 1.19M237.597 11.403l-.007.762c-.145 12.726-17.258 20.895-28.137 22.7-.342.056-2.11.094-2.453.135"/>
    <path fill="none" d="m251 53-2.616.64c-4.388 5.537-11.886 10.291-19.53 8.21-.004-.001 5.261-3.237 6.09-3.832 6.893-4.947 12.475-16.715 14.032-24.818 1.915-9.966-1.558-19.558-12.34-22.056"/>
    <path fill="none" d="m249.809 53.463.694.293c2.023.865-.047 8.64-.462 9.816-1.966 5.565-6 7.331-10.006 10.893-.032.028 3.831 3.107 4.156 4.146C246.429 85.79 231.103 82.642 228 80"/>
    <path fill="none" d="m169 76 .504.408c6.118 3.012 10.746 5.277 17.738 6.065 11.337 1.28 24.92 2.214 36.168.137a22.976 22.976 0 0 0 5.78-1.885M124 74l2.34.33c12.97 12.725 36.838 14.232 54.068 13.017.672-.047-5.426-2.952-6.924-4.044-2.625-1.913-4.875-4.122-5.825-7.255M124.487 73.503l-.663.21c-8.538 2.713-17.345 5.113-25.97 7.52-3.049.85-12.747.292-7.085-4.699 7.042-6.207 19.828-5.39 25.704-12.967.737-.95 1.187-2.434 1.527-3.567"/>
  </g>
</svg>